<?xml version="1.0" encoding="UTF-8" standalone="no"?>
<!DOCTYPE svg PUBLIC "-//W3C//DTD SVG 1.1//EN"
 "http://www.w3.org/Graphics/SVG/1.1/DTD/svg11.dtd">
<!-- Generated by graphviz version 14.0.4 (20251115.1723)
 -->
<!-- Title: src/backend/Noeud.h Pages: 1 -->
<svg width="678pt" height="320pt"
 viewBox="0.00 0.00 678.00 320.00" xmlns="http://www.w3.org/2000/svg" xmlns:xlink="http://www.w3.org/1999/xlink">
<g id="graph0" class="graph" transform="scale(1 1) rotate(0) translate(4 316)">
<title>src/backend/Noeud.h</title>
<!-- Node1 -->
<g id="Node000001" class="node">
<title>Node1</title>
<g id="a_Node000001"><a xlink:title=" ">
<polygon fill="#999999" stroke="#666666" points="464.51,-312 355.51,-312 355.51,-292 464.51,-292 464.51,-312"/>
<text xml:space="preserve" text-anchor="middle" x="410.01" y="-298.5" font-family="Helvetica,sans-Serif" font-size="10.00">src/backend/Noeud.h</text>
</a>
</g>
</g>
<!-- Node2 -->
<g id="Node000002" class="node">
<title>Node2</title>
<g id="a_Node000002"><a xlink:href="_graphe_routier_8h.html" target="_top" xlink:title=" ">
<polygon fill="white" stroke="#666666" points="370.76,-256 227.26,-256 227.26,-236 370.76,-236 370.76,-256"/>
<text xml:space="preserve" text-anchor="middle" x="299.01" y="-242.5" font-family="Helvetica,sans-Serif" font-size="10.00">src/backend/GrapheRoutier.h</text>
</a>
</g>
</g>
<!-- Node1&#45;&gt;Node2 -->
<g id="edge1_Node000001_Node000002" class="edge">
<title>Node1&#45;&gt;Node2</title>
<g id="a_edge1_Node000001_Node000002"><a xlink:title=" ">
<path fill="none" stroke="#63b8ff" d="M380.43,-286.61C360.82,-277.07 335.63,-264.81 318.49,-256.48"/>
<polygon fill="#63b8ff" stroke="#63b8ff" points="378.79,-289.7 389.31,-290.93 381.85,-283.41 378.79,-289.7"/>
</a>
</g>
</g>
<!-- Node13 -->
<g id="Node000013" class="node">
<title>Node13</title>
<g id="a_Node000013"><a xlink:href="vehicule_8cpp.html" target="_top" xlink:title=" ">
<polygon fill="white" stroke="#666666" points="484.51,-200 357.51,-200 357.51,-180 484.51,-180 484.51,-200"/>
<text xml:space="preserve" text-anchor="middle" x="421.01" y="-186.5" font-family="Helvetica,sans-Serif" font-size="10.00">src/backend/vehicule.cpp</text>
</a>
</g>
</g>
<!-- Node1&#45;&gt;Node13 -->
<g id="edge16_Node000001_Node000013" class="edge">
<title>Node1&#45;&gt;Node13</title>
<g id="a_edge16_Node000001_Node000013"><a xlink:title=" ">
<path fill="none" stroke="#63b8ff" d="M412.08,-280.31C414.47,-256.36 418.31,-217.95 420.07,-200.35"/>
<polygon fill="#63b8ff" stroke="#63b8ff" points="408.61,-279.82 411.1,-290.12 415.57,-280.51 408.61,-279.82"/>
</a>
</g>
</g>
<!-- Node14 -->
<g id="Node000014" class="node">
<title>Node14</title>
<g id="a_Node000014"><a xlink:href="_noeud_8cpp.html" target="_top" xlink:title=" ">
<polygon fill="white" stroke="#666666" points="557.76,-256 438.26,-256 438.26,-236 557.76,-236 557.76,-256"/>
<text xml:space="preserve" text-anchor="middle" x="498.01" y="-242.5" font-family="Helvetica,sans-Serif" font-size="10.00">src/backend/Noeud.cpp</text>
</a>
</g>
</g>
<!-- Node1&#45;&gt;Node14 -->
<g id="edge15_Node000001_Node000014" class="edge">
<title>Node1&#45;&gt;Node14</title>
<g id="a_edge15_Node000001_Node000014"><a xlink:title=" ">
<path fill="none" stroke="#63b8ff" d="M434.76,-285.81C450.11,-276.39 469.35,-264.58 482.56,-256.48"/>
<polygon fill="#63b8ff" stroke="#63b8ff" points="433.32,-282.59 426.63,-290.8 436.98,-288.56 433.32,-282.59"/>
</a>
</g>
</g>
<!-- Node3 -->
<g id="Node000003" class="node">
<title>Node3</title>
<g id="a_Node000003"><a xlink:href="_graphe_routier_8cpp.html" target="_top" xlink:title=" ">
<polygon fill="white" stroke="#666666" points="196.01,-200 42.01,-200 42.01,-180 196.01,-180 196.01,-200"/>
<text xml:space="preserve" text-anchor="middle" x="119.01" y="-186.5" font-family="Helvetica,sans-Serif" font-size="10.00">src/backend/GrapheRoutier.cpp</text>
</a>
</g>
</g>
<!-- Node2&#45;&gt;Node3 -->
<g id="edge2_Node000002_Node000003" class="edge">
<title>Node2&#45;&gt;Node3</title>
<g id="a_edge2_Node000002_Node000003"><a xlink:title=" ">
<path fill="none" stroke="#63b8ff" d="M256.69,-232.31C224.2,-222.56 180.06,-209.32 150.61,-200.48"/>
<polygon fill="#63b8ff" stroke="#63b8ff" points="255.62,-235.64 266.2,-235.16 257.63,-228.93 255.62,-235.64"/>
</a>
</g>
</g>
<!-- Node4 -->
<g id="Node000004" class="node">
<title>Node4</title>
<g id="a_Node000004"><a xlink:href="simulateur_8h.html" target="_top" xlink:title=" ">
<polygon fill="white" stroke="#666666" points="339.76,-200 214.26,-200 214.26,-180 339.76,-180 339.76,-200"/>
<text xml:space="preserve" text-anchor="middle" x="277.01" y="-186.5" font-family="Helvetica,sans-Serif" font-size="10.00">src/backend/simulateur.h</text>
</a>
</g>
</g>
<!-- Node2&#45;&gt;Node4 -->
<g id="edge3_Node000002_Node000004" class="edge">
<title>Node2&#45;&gt;Node4</title>
<g id="a_edge3_Node000002_Node000004"><a xlink:title=" ">
<path fill="none" stroke="#63b8ff" d="M290.86,-225C287.41,-216.54 283.56,-207.08 280.8,-200.3"/>
<polygon fill="#63b8ff" stroke="#63b8ff" points="287.59,-226.25 294.6,-234.19 294.07,-223.61 287.59,-226.25"/>
</a>
</g>
</g>
<!-- Node2&#45;&gt;Node13 -->
<g id="edge14_Node000002_Node000013" class="edge">
<title>Node2&#45;&gt;Node13</title>
<g id="a_edge14_Node000002_Node000013"><a xlink:title=" ">
<path fill="none" stroke="#63b8ff" d="M330.62,-231.01C352.3,-221.41 380.5,-208.93 399.59,-200.48"/>
<polygon fill="#63b8ff" stroke="#63b8ff" points="329.37,-227.73 321.64,-234.98 332.2,-234.13 329.37,-227.73"/>
</a>
</g>
</g>
<!-- Node5 -->
<g id="Node000005" class="node">
<title>Node5</title>
<g id="a_Node000005"><a xlink:href="main_8cpp.html" target="_top" xlink:title=" ">
<polygon fill="white" stroke="#666666" points="142.01,-20 30.01,-20 30.01,0 142.01,0 142.01,-20"/>
<text xml:space="preserve" text-anchor="middle" x="86.01" y="-6.5" font-family="Helvetica,sans-Serif" font-size="10.00">src/backend/main.cpp</text>
</a>
</g>
</g>
<!-- Node4&#45;&gt;Node5 -->
<g id="edge4_Node000004_Node000005" class="edge">
<title>Node4&#45;&gt;Node5</title>
<g id="a_edge4_Node000004_Node000005"><a xlink:title=" ">
<path fill="none" stroke="#63b8ff" d="M203,-178.91C126.18,-168.08 16.29,-151.43 10.01,-144 -24.85,-102.78 43.36,-43.3 73.1,-20.44"/>
<polygon fill="#63b8ff" stroke="#63b8ff" points="202.19,-182.33 212.58,-180.25 203.16,-175.4 202.19,-182.33"/>
</a>
</g>
</g>
<!-- Node6 -->
<g id="Node000006" class="node">
<title>Node6</title>
<g id="a_Node000006"><a xlink:href="main__test__simulation__console_8cpp.html" target="_top" xlink:title=" ">
<polygon fill="white" stroke="#666666" points="142.63,-144 19.38,-144 19.38,-112 142.63,-112 142.63,-144"/>
<text xml:space="preserve" text-anchor="start" x="27.38" y="-130.5" font-family="Helvetica,sans-Serif" font-size="10.00">src/backend/main_test</text>
<text xml:space="preserve" text-anchor="middle" x="81.01" y="-118.5" font-family="Helvetica,sans-Serif" font-size="10.00">_simulation_console.cpp</text>
</a>
</g>
</g>
<!-- Node4&#45;&gt;Node6 -->
<g id="edge5_Node000004_Node000006" class="edge">
<title>Node4&#45;&gt;Node6</title>
<g id="a_edge5_Node000004_Node000006"><a xlink:title=" ">
<path fill="none" stroke="#63b8ff" d="M235.74,-176.37C205.39,-167.08 163.96,-154.39 131.61,-144.49"/>
<polygon fill="#63b8ff" stroke="#63b8ff" points="234.35,-179.6 244.94,-179.18 236.4,-172.91 234.35,-179.6"/>
</a>
</g>
</g>
<!-- Node7 -->
<g id="Node000007" class="node">
<title>Node7</title>
<g id="a_Node000007"><a xlink:href="simulateur_8cpp.html" target="_top" xlink:title=" ">
<polygon fill="white" stroke="#666666" points="297.01,-138 161.01,-138 161.01,-118 297.01,-118 297.01,-138"/>
<text xml:space="preserve" text-anchor="middle" x="229.01" y="-124.5" font-family="Helvetica,sans-Serif" font-size="10.00">src/backend/simulateur.cpp</text>
</a>
</g>
</g>
<!-- Node4&#45;&gt;Node7 -->
<g id="edge6_Node000004_Node000007" class="edge">
<title>Node4&#45;&gt;Node7</title>
<g id="a_edge6_Node000004_Node000007"><a xlink:title=" ">
<path fill="none" stroke="#63b8ff" d="M262.55,-170.92C253.88,-160.1 243.24,-146.79 236.3,-138.11"/>
<polygon fill="#63b8ff" stroke="#63b8ff" points="259.58,-172.82 268.56,-178.44 265.05,-168.45 259.58,-172.82"/>
</a>
</g>
</g>
<!-- Node8 -->
<g id="Node000008" class="node">
<title>Node8</title>
<g id="a_Node000008"><a xlink:href="mainwindow_8h.html" target="_top" xlink:title=" ">
<polygon fill="white" stroke="#666666" points="391.13,-76 258.88,-76 258.88,-56 391.13,-56 391.13,-76"/>
<text xml:space="preserve" text-anchor="middle" x="325.01" y="-62.5" font-family="Helvetica,sans-Serif" font-size="10.00">src/frontend/mainwindow.h</text>
</a>
</g>
</g>
<!-- Node4&#45;&gt;Node8 -->
<g id="edge7_Node000004_Node000008" class="edge">
<title>Node4&#45;&gt;Node8</title>
<g id="a_edge7_Node000004_Node000008"><a xlink:title=" ">
<path fill="none" stroke="#63b8ff" d="M291.03,-170.31C296.35,-162.51 302.07,-153.14 306.01,-144 316.04,-120.74 321.47,-91.14 323.73,-76.33"/>
<polygon fill="#63b8ff" stroke="#63b8ff" points="288.3,-168.12 285.33,-178.29 293.99,-172.19 288.3,-168.12"/>
</a>
</g>
</g>
<!-- Node10 -->
<g id="Node000010" class="node">
<title>Node10</title>
<g id="a_Node000010"><a xlink:href="mapwidgetosm_8cpp.html" target="_top" xlink:title=" ">
<polygon fill="white" stroke="#666666" points="508.76,-138 353.26,-138 353.26,-118 508.76,-118 508.76,-138"/>
<text xml:space="preserve" text-anchor="middle" x="431.01" y="-124.5" font-family="Helvetica,sans-Serif" font-size="10.00">src/frontend/mapwidgetosm.cpp</text>
</a>
</g>
</g>
<!-- Node4&#45;&gt;Node10 -->
<g id="edge10_Node000004_Node000010" class="edge">
<title>Node4&#45;&gt;Node10</title>
<g id="a_edge10_Node000004_Node000010"><a xlink:title=" ">
<path fill="none" stroke="#63b8ff" d="M311.56,-175.54C340.56,-164.24 381.25,-148.39 406.86,-138.41"/>
<polygon fill="#63b8ff" stroke="#63b8ff" points="310.53,-172.18 302.48,-179.08 313.07,-178.71 310.53,-172.18"/>
</a>
</g>
</g>
<!-- Node11 -->
<g id="Node000011" class="node">
<title>Node11</title>
<g id="a_Node000011"><a xlink:href="paramwindow_8h.html" target="_top" xlink:title=" ">
<polygon fill="white" stroke="#666666" points="665.13,-138 526.88,-138 526.88,-118 665.13,-118 665.13,-138"/>
<text xml:space="preserve" text-anchor="middle" x="596.01" y="-124.5" font-family="Helvetica,sans-Serif" font-size="10.00">src/frontend/paramwindow.h</text>
</a>
</g>
</g>
<!-- Node4&#45;&gt;Node11 -->
<g id="edge11_Node000004_Node000011" class="edge">
<title>Node4&#45;&gt;Node11</title>
<g id="a_edge11_Node000004_Node000011"><a xlink:title=" ">
<path fill="none" stroke="#63b8ff" d="M339.56,-177.42C388.22,-168.38 457.42,-155.48 518.01,-144 527.36,-142.23 537.33,-140.32 546.92,-138.48"/>
<polygon fill="#63b8ff" stroke="#63b8ff" points="338.95,-173.97 329.76,-179.24 340.23,-180.85 338.95,-173.97"/>
</a>
</g>
</g>
<!-- Node8&#45;&gt;Node5 -->
<g id="edge8_Node000008_Node000005" class="edge">
<title>Node8&#45;&gt;Node5</title>
<g id="a_edge8_Node000008_Node000005"><a xlink:title=" ">
<path fill="none" stroke="#63b8ff" d="M271.9,-53C228.47,-43.19 167.91,-29.51 127.86,-20.46"/>
<polygon fill="#63b8ff" stroke="#63b8ff" points="271.1,-56.41 281.63,-55.2 272.64,-49.58 271.1,-56.41"/>
</a>
</g>
</g>
<!-- Node9 -->
<g id="Node000009" class="node">
<title>Node9</title>
<g id="a_Node000009"><a xlink:href="mainwindow_8cpp.html" target="_top" xlink:title=" ">
<polygon fill="white" stroke="#666666" points="396.38,-20 253.63,-20 253.63,0 396.38,0 396.38,-20"/>
<text xml:space="preserve" text-anchor="middle" x="325.01" y="-6.5" font-family="Helvetica,sans-Serif" font-size="10.00">src/frontend/mainwindow.cpp</text>
</a>
</g>
</g>
<!-- Node8&#45;&gt;Node9 -->
<g id="edge9_Node000008_Node000009" class="edge">
<title>Node8&#45;&gt;Node9</title>
<g id="a_edge9_Node000008_Node000009"><a xlink:title=" ">
<path fill="none" stroke="#63b8ff" d="M325.01,-44.13C325.01,-35.9 325.01,-26.85 325.01,-20.3"/>
<polygon fill="#63b8ff" stroke="#63b8ff" points="321.51,-44.08 325.01,-54.08 328.51,-44.08 321.51,-44.08"/>
</a>
</g>
</g>
<!-- Node11&#45;&gt;Node8 -->
<g id="edge12_Node000011_Node000008" class="edge">
<title>Node11&#45;&gt;Node8</title>
<g id="a_edge12_Node000011_Node000008"><a xlink:title=" ">
<path fill="none" stroke="#63b8ff" d="M542.2,-115.09C491.03,-103.76 415.05,-86.93 367.85,-76.48"/>
<polygon fill="#63b8ff" stroke="#63b8ff" points="541.37,-118.49 551.89,-117.23 542.88,-111.65 541.37,-118.49"/>
</a>
</g>
</g>
<!-- Node12 -->
<g id="Node000012" class="node">
<title>Node12</title>
<g id="a_Node000012"><a xlink:href="paramwindow_8cpp.html" target="_top" xlink:title=" ">
<polygon fill="white" stroke="#666666" points="670.38,-76 521.63,-76 521.63,-56 670.38,-56 670.38,-76"/>
<text xml:space="preserve" text-anchor="middle" x="596.01" y="-62.5" font-family="Helvetica,sans-Serif" font-size="10.00">src/frontend/paramwindow.cpp</text>
</a>
</g>
</g>
<!-- Node11&#45;&gt;Node12 -->
<g id="edge13_Node000011_Node000012" class="edge">
<title>Node11&#45;&gt;Node12</title>
<g id="a_edge13_Node000011_Node000012"><a xlink:title=" ">
<path fill="none" stroke="#63b8ff" d="M596.01,-106.25C596.01,-95.97 596.01,-84.09 596.01,-76.11"/>
<polygon fill="#63b8ff" stroke="#63b8ff" points="592.51,-106.11 596.01,-116.11 599.51,-106.11 592.51,-106.11"/>
</a>
</g>
</g>
</g>
</svg>
