<?xml version="1.0" encoding="UTF-8" standalone="no"?>
<!DOCTYPE svg PUBLIC "-//W3C//DTD SVG 1.1//EN"
 "http://www.w3.org/Graphics/SVG/1.1/DTD/svg11.dtd">
<!-- Generated by graphviz version 14.0.4 (20251115.1723)
 -->
<!-- Title: MainWindow::MainWindow Pages: 1 -->
<svg width="485pt" height="142pt"
 viewBox="0.00 0.00 485.00 142.00" xmlns="http://www.w3.org/2000/svg" xmlns:xlink="http://www.w3.org/1999/xlink">
<g id="graph0" class="graph" transform="scale(1 1) rotate(0) translate(4 138)">
<title>MainWindow::MainWindow</title>
<!-- Node1 -->
<g id="Node000001" class="node">
<title>Node1</title>
<g id="a_Node000001"><a xlink:title="Constructeur de la fenêtre principale.">
<polygon fill="#999999" stroke="#666666" points="134.5,-77 0,-77 0,-57 134.5,-57 134.5,-77"/>
<text xml:space="preserve" text-anchor="middle" x="67.25" y="-63.5" font-family="Helvetica,sans-Serif" font-size="10.00">MainWindow::MainWindow</text>
</a>
</g>
</g>
<!-- Node2 -->
<g id="Node000002" class="node">
<title>Node2</title>
<g id="a_Node000002"><a xlink:href="class_main_window.html#a3a304253c9e7caeef028f75358bf1fd5" target="_top" xlink:title="Mise en place des composants dans la fenêtre principale.">
<polygon fill="white" stroke="#666666" points="283.25,-77 170.5,-77 170.5,-57 283.25,-57 283.25,-77"/>
<text xml:space="preserve" text-anchor="middle" x="226.88" y="-63.5" font-family="Helvetica,sans-Serif" font-size="10.00">MainWindow::setupUI</text>
</a>
</g>
</g>
<!-- Node1&#45;&gt;Node2 -->
<g id="edge1_Node000001_Node000002" class="edge">
<title>Node1&#45;&gt;Node2</title>
<g id="a_edge1_Node000001_Node000002"><a xlink:title=" ">
<path fill="none" stroke="#63b8ff" d="M134.64,-67C142.55,-67 150.64,-67 158.57,-67"/>
<polygon fill="#63b8ff" stroke="#63b8ff" points="158.51,-70.5 168.51,-67 158.51,-63.5 158.51,-70.5"/>
</a>
</g>
</g>
<!-- Node3 -->
<g id="Node000003" class="node">
<title>Node3</title>
<g id="a_Node000003"><a xlink:href="class_main_window.html#a35ce515b2c60bc1670f9f1252e3814b4" target="_top" xlink:title="Mise&#45;à&#45;jour du facteur vitesse.">
<polygon fill="white" stroke="#666666" points="477,-134 319.25,-134 319.25,-114 477,-114 477,-134"/>
<text xml:space="preserve" text-anchor="middle" x="398.12" y="-120.5" font-family="Helvetica,sans-Serif" font-size="10.00">MainWindow::miseAJourVitesse</text>
</a>
</g>
</g>
<!-- Node2&#45;&gt;Node3 -->
<g id="edge2_Node000002_Node000003" class="edge">
<title>Node2&#45;&gt;Node3</title>
<g id="a_edge2_Node000002_Node000003"><a xlink:title=" ">
<path fill="none" stroke="#63b8ff" d="M250.04,-77.35C268.32,-85.62 295.09,-97.08 319.25,-105 325.43,-107.03 331.96,-108.95 338.49,-110.73"/>
<polygon fill="#63b8ff" stroke="#63b8ff" points="337.41,-114.07 347.97,-113.22 339.19,-107.3 337.41,-114.07"/>
</a>
</g>
</g>
<!-- Node4 -->
<g id="Node000004" class="node">
<title>Node4</title>
<g id="a_Node000004"><a xlink:href="class_tool_bar.html#a87af613a455687417658adf4a8e642fb" target="_top" xlink:title="Signal sur ouverture de la fenêtre de paramétrage.">
<polygon fill="white" stroke="#666666" points="468,-96 328.25,-96 328.25,-76 468,-76 468,-96"/>
<text xml:space="preserve" text-anchor="middle" x="398.12" y="-82.5" font-family="Helvetica,sans-Serif" font-size="10.00">ToolBar::openParamWindow</text>
</a>
</g>
</g>
<!-- Node2&#45;&gt;Node4 -->
<g id="edge3_Node000002_Node000004" class="edge">
<title>Node2&#45;&gt;Node4</title>
<g id="a_edge3_Node000002_Node000004"><a xlink:title=" ">
<path fill="none" stroke="#63b8ff" d="M283.29,-73.22C293.99,-74.42 305.41,-75.7 316.72,-76.97"/>
<polygon fill="#63b8ff" stroke="#63b8ff" points="316.13,-80.43 326.46,-78.07 316.91,-73.47 316.13,-80.43"/>
</a>
</g>
</g>
<!-- Node5 -->
<g id="Node000005" class="node">
<title>Node5</title>
<g id="a_Node000005"><a xlink:href="class_main_window.html#a1a2e97039436ff386c52b5b37dfe63f9" target="_top" xlink:title="Ouverture de la fenêtre des paramètres.">
<polygon fill="white" stroke="#666666" points="474.38,-58 321.88,-58 321.88,-38 474.38,-38 474.38,-58"/>
<text xml:space="preserve" text-anchor="middle" x="398.12" y="-44.5" font-family="Helvetica,sans-Serif" font-size="10.00">MainWindow::ouvrirParametres</text>
</a>
</g>
</g>
<!-- Node2&#45;&gt;Node5 -->
<g id="edge4_Node000002_Node000005" class="edge">
<title>Node2&#45;&gt;Node5</title>
<g id="a_edge4_Node000002_Node000005"><a xlink:title=" ">
<path fill="none" stroke="#63b8ff" d="M283.29,-60.78C292,-59.8 301.17,-58.77 310.38,-57.74"/>
<polygon fill="#63b8ff" stroke="#63b8ff" points="310.55,-61.24 320.1,-56.65 309.77,-54.28 310.55,-61.24"/>
</a>
</g>
</g>
<!-- Node6 -->
<g id="Node000006" class="node">
<title>Node6</title>
<g id="a_Node000006"><a xlink:href="class_tool_bar.html#a8d3b41a0fc4869bfd81d4fd36d813242" target="_top" xlink:title="Signal sur changement de vitesse.">
<polygon fill="white" stroke="#666666" points="458.25,-20 338,-20 338,0 458.25,0 458.25,-20"/>
<text xml:space="preserve" text-anchor="middle" x="398.12" y="-6.5" font-family="Helvetica,sans-Serif" font-size="10.00">ToolBar::speedChanged</text>
</a>
</g>
</g>
<!-- Node2&#45;&gt;Node6 -->
<g id="edge5_Node000002_Node000006" class="edge">
<title>Node2&#45;&gt;Node6</title>
<g id="a_edge5_Node000002_Node000006"><a xlink:title=" ">
<path fill="none" stroke="#63b8ff" d="M250.04,-56.65C268.32,-48.38 295.09,-36.92 319.25,-29 325.43,-26.97 331.96,-25.05 338.49,-23.27"/>
<polygon fill="#63b8ff" stroke="#63b8ff" points="339.19,-26.7 347.97,-20.78 337.41,-19.93 339.19,-26.7"/>
</a>
</g>
</g>
</g>
</svg>
