<?xml version="1.0" encoding="UTF-8" standalone="no"?>
<!DOCTYPE svg PUBLIC "-//W3C//DTD SVG 1.1//EN"
 "http://www.w3.org/Graphics/SVG/1.1/DTD/svg11.dtd">
<!-- Generated by graphviz version 14.0.4 (20251115.1723)
 -->
<!-- Title: Simulateur Pages: 1 -->
<svg width="204pt" height="96pt"
 viewBox="0.00 0.00 204.00 96.00" xmlns="http://www.w3.org/2000/svg" xmlns:xlink="http://www.w3.org/1999/xlink">
<g id="graph0" class="graph" transform="scale(1 1) rotate(0) translate(4 92)">
<title>Simulateur</title>
<!-- Node1 -->
<g id="Node000001" class="node">
<title>Node1</title>
<g id="a_Node000001"><a xlink:title="Classe représentant le simulateur et les calculs du simulateur.">
<polygon fill="#999999" stroke="#666666" points="133.88,-20 71.38,-20 71.38,0 133.88,0 133.88,-20"/>
<text xml:space="preserve" text-anchor="middle" x="102.62" y="-6.5" font-family="Helvetica,sans-Serif" font-size="10.00">Simulateur</text>
</a>
</g>
</g>
<!-- Node2 -->
<g id="Node000002" class="node">
<title>Node2</title>
<g id="a_Node000002"><a xlink:href="class_graphe_interference.html" target="_top" xlink:title="Classe qui gère le graphe d&#39;interférences entre véhicules.">
<polygon fill="white" stroke="#666666" points="99.25,-88 0,-88 0,-68 99.25,-68 99.25,-88"/>
<text xml:space="preserve" text-anchor="middle" x="49.62" y="-74.5" font-family="Helvetica,sans-Serif" font-size="10.00">GrapheInterference</text>
</a>
</g>
</g>
<!-- Node2&#45;&gt;Node1 -->
<g id="edge1_Node000001_Node000002" class="edge">
<title>Node2&#45;&gt;Node1</title>
<g id="a_edge1_Node000001_Node000002"><a xlink:title=" ">
<path fill="none" stroke="#9a32cd" stroke-dasharray="5,2" d="M64.17,-58.88C74.16,-46.44 87.02,-30.43 95.05,-20.44"/>
<polygon fill="#9a32cd" stroke="#9a32cd" points="61.7,-56.38 58.17,-66.36 67.16,-60.76 61.7,-56.38"/>
</a>
</g>
<text xml:space="preserve" text-anchor="middle" x="97" y="-40.5" font-family="Helvetica,sans-Serif" font-size="10.00" fill="grey"> graphe</text>
</g>
<!-- Node3 -->
<g id="Node000003" class="node">
<title>Node3</title>
<g id="a_Node000003"><a xlink:href="class_graphe_routier.html" target="_top" xlink:title="Classe représentant le graphe de toutes les routes présentantes et disponible actuelle dans la zone d...">
<polygon fill="white" stroke="#666666" points="196.12,-88 117.12,-88 117.12,-68 196.12,-68 196.12,-88"/>
<text xml:space="preserve" text-anchor="middle" x="156.62" y="-74.5" font-family="Helvetica,sans-Serif" font-size="10.00">GrapheRoutier</text>
</a>
</g>
</g>
<!-- Node3&#45;&gt;Node1 -->
<g id="edge2_Node000001_Node000003" class="edge">
<title>Node3&#45;&gt;Node1</title>
<g id="a_edge2_Node000001_Node000003"><a xlink:title=" ">
<path fill="none" stroke="#9a32cd" stroke-dasharray="5,2" d="M141.8,-58.88C131.62,-46.44 118.52,-30.43 110.35,-20.44"/>
<polygon fill="#9a32cd" stroke="#9a32cd" points="138.89,-60.85 147.93,-66.37 144.31,-56.42 138.89,-60.85"/>
</a>
</g>
<text xml:space="preserve" text-anchor="middle" x="149.46" y="-40.5" font-family="Helvetica,sans-Serif" font-size="10.00" fill="grey"> routes</text>
</g>
</g>
</svg>
