<?xml version="1.0" encoding="UTF-8" standalone="no"?>
<!DOCTYPE svg PUBLIC "-//W3C//DTD SVG 1.1//EN"
 "http://www.w3.org/Graphics/SVG/1.1/DTD/svg11.dtd">
<!-- Generated by graphviz version 14.0.4 (20251115.1723)
 -->
<!-- Title: MapWidgetOSM::setCentre Pages: 1 -->
<svg width="540pt" height="85pt"
 viewBox="0.00 0.00 540.00 85.00" xmlns="http://www.w3.org/2000/svg" xmlns:xlink="http://www.w3.org/1999/xlink">
<g id="graph0" class="graph" transform="scale(1 1) rotate(0) translate(4 81)">
<title>MapWidgetOSM::setCentre</title>
<!-- Node1 -->
<g id="Node000001" class="node">
<title>Node1</title>
<g id="a_Node000001"><a xlink:title="Définit le centre de la carte en latitude/longitude.">
<polygon fill="#999999" stroke="#666666" points="136.75,-58 0,-58 0,-38 136.75,-38 136.75,-58"/>
<text xml:space="preserve" text-anchor="middle" x="68.38" y="-44.5" font-family="Helvetica,sans-Serif" font-size="10.00">MapWidgetOSM::setCentre</text>
</a>
</g>
</g>
<!-- Node2 -->
<g id="Node000002" class="node">
<title>Node2</title>
<g id="a_Node000002"><a xlink:href="class_map_widget_o_s_m.html#a119a5cdd4c1e1fb206152db2d266531f" target="_top" xlink:title="Contrainte le centre pour rester sur le bassin mulhousien.">
<polygon fill="white" stroke="#666666" points="335.75,-77 172.75,-77 172.75,-57 335.75,-57 335.75,-77"/>
<text xml:space="preserve" text-anchor="middle" x="254.25" y="-63.5" font-family="Helvetica,sans-Serif" font-size="10.00">MapWidgetOSM::constrainCenter</text>
</a>
</g>
</g>
<!-- Node1&#45;&gt;Node2 -->
<g id="edge1_Node000001_Node000002" class="edge">
<title>Node1&#45;&gt;Node2</title>
<g id="a_edge1_Node000001_Node000002"><a xlink:title=" ">
<path fill="none" stroke="#63b8ff" d="M137.06,-54.99C144.86,-55.8 152.9,-56.63 160.95,-57.46"/>
<polygon fill="#63b8ff" stroke="#63b8ff" points="160.49,-60.93 170.8,-58.48 161.21,-53.97 160.49,-60.93"/>
</a>
</g>
</g>
<!-- Node3 -->
<g id="Node000003" class="node">
<title>Node3</title>
<g id="a_Node000003"><a xlink:href="class_map_widget_o_s_m.html#a0b4faed51b47d5dc48270d4cdc2ee168" target="_top" xlink:title="Charge les tuiles autour du centre.">
<polygon fill="white" stroke="#666666" points="320.75,-39 187.75,-39 187.75,-19 320.75,-19 320.75,-39"/>
<text xml:space="preserve" text-anchor="middle" x="254.25" y="-25.5" font-family="Helvetica,sans-Serif" font-size="10.00">MapWidgetOSM::loadTiles</text>
</a>
</g>
</g>
<!-- Node1&#45;&gt;Node3 -->
<g id="edge2_Node000001_Node000003" class="edge">
<title>Node1&#45;&gt;Node3</title>
<g id="a_edge2_Node000001_Node000003"><a xlink:title=" ">
<path fill="none" stroke="#63b8ff" d="M137.06,-41.01C149.81,-39.69 163.23,-38.3 176.24,-36.96"/>
<polygon fill="#63b8ff" stroke="#63b8ff" points="176.45,-40.45 186.04,-35.94 175.73,-33.49 176.45,-40.45"/>
</a>
</g>
</g>
<!-- Node4 -->
<g id="Node000004" class="node">
<title>Node4</title>
<g id="a_Node000004"><a xlink:href="class_map_widget_o_s_m.html#af492a05e52146495334f1d8128d78ec4" target="_top" xlink:title="Convertit une coordonnée lat/lon en coordonnées de tuile.">
<polygon fill="white" stroke="#666666" points="531.75,-58 371.75,-58 371.75,-38 531.75,-38 531.75,-58"/>
<text xml:space="preserve" text-anchor="middle" x="451.75" y="-44.5" font-family="Helvetica,sans-Serif" font-size="10.00">MapWidgetOSM::latLonToTileXY</text>
</a>
</g>
</g>
<!-- Node3&#45;&gt;Node4 -->
<g id="edge3_Node000003_Node000004" class="edge">
<title>Node3&#45;&gt;Node4</title>
<g id="a_edge3_Node000003_Node000004"><a xlink:title=" ">
<path fill="none" stroke="#63b8ff" d="M321.16,-35.41C333.81,-36.63 347.25,-37.94 360.51,-39.23"/>
<polygon fill="#63b8ff" stroke="#63b8ff" points="359.78,-42.68 370.07,-40.16 360.46,-35.71 359.78,-42.68"/>
</a>
</g>
</g>
<!-- Node5 -->
<g id="Node000005" class="node">
<title>Node5</title>
<g id="a_Node000005"><a xlink:href="class_map_widget_o_s_m.html#a72db733576e870e347b4765b8d0db95a" target="_top" xlink:title="Génère une clé unique pour une tuile.">
<polygon fill="white" stroke="#666666" points="513.75,-20 389.75,-20 389.75,0 513.75,0 513.75,-20"/>
<text xml:space="preserve" text-anchor="middle" x="451.75" y="-6.5" font-family="Helvetica,sans-Serif" font-size="10.00">MapWidgetOSM::tileKey</text>
</a>
</g>
</g>
<!-- Node3&#45;&gt;Node5 -->
<g id="edge4_Node000003_Node000005" class="edge">
<title>Node3&#45;&gt;Node5</title>
<g id="a_edge4_Node000003_Node000005"><a xlink:title=" ">
<path fill="none" stroke="#63b8ff" d="M321.16,-22.59C339.43,-20.82 359.37,-18.88 378,-17.07"/>
<polygon fill="#63b8ff" stroke="#63b8ff" points="378.29,-20.56 387.9,-16.11 377.61,-13.59 378.29,-20.56"/>
</a>
</g>
</g>
</g>
</svg>
