<?xml version="1.0" encoding="UTF-8" standalone="no"?>
<!DOCTYPE svg PUBLIC "-//W3C//DTD SVG 1.1//EN"
 "http://www.w3.org/Graphics/SVG/1.1/DTD/svg11.dtd">
<!-- Generated by graphviz version 14.0.4 (20251115.1723)
 -->
<!-- Title: MapWidgetOSM::setZoom Pages: 1 -->
<svg width="505pt" height="66pt"
 viewBox="0.00 0.00 505.00 66.00" xmlns="http://www.w3.org/2000/svg" xmlns:xlink="http://www.w3.org/1999/xlink">
<g id="graph0" class="graph" transform="scale(1 1) rotate(0) translate(4 62)">
<title>MapWidgetOSM::setZoom</title>
<!-- Node1 -->
<g id="Node000001" class="node">
<title>Node1</title>
<g id="a_Node000001"><a xlink:title="Définit le niveau de zoom.">
<polygon fill="#999999" stroke="#666666" points="132.25,-39 0,-39 0,-19 132.25,-19 132.25,-39"/>
<text xml:space="preserve" text-anchor="middle" x="66.12" y="-25.5" font-family="Helvetica,sans-Serif" font-size="10.00">MapWidgetOSM::setZoom</text>
</a>
</g>
</g>
<!-- Node2 -->
<g id="Node000002" class="node">
<title>Node2</title>
<g id="a_Node000002"><a xlink:href="class_map_widget_o_s_m.html#a0b4faed51b47d5dc48270d4cdc2ee168" target="_top" xlink:title="Charge les tuiles autour du centre.">
<polygon fill="white" stroke="#666666" points="301.25,-39 168.25,-39 168.25,-19 301.25,-19 301.25,-39"/>
<text xml:space="preserve" text-anchor="middle" x="234.75" y="-25.5" font-family="Helvetica,sans-Serif" font-size="10.00">MapWidgetOSM::loadTiles</text>
</a>
</g>
</g>
<!-- Node1&#45;&gt;Node2 -->
<g id="edge1_Node000001_Node000002" class="edge">
<title>Node1&#45;&gt;Node2</title>
<g id="a_edge1_Node000001_Node000002"><a xlink:title=" ">
<path fill="none" stroke="#63b8ff" d="M132.5,-29C140.43,-29 148.59,-29 156.67,-29"/>
<polygon fill="#63b8ff" stroke="#63b8ff" points="156.5,-32.5 166.5,-29 156.5,-25.5 156.5,-32.5"/>
</a>
</g>
</g>
<!-- Node3 -->
<g id="Node000003" class="node">
<title>Node3</title>
<g id="a_Node000003"><a xlink:href="class_map_widget_o_s_m.html#af492a05e52146495334f1d8128d78ec4" target="_top" xlink:title="Convertit une coordonnée lat/lon en coordonnées de tuile.">
<polygon fill="white" stroke="#666666" points="497.25,-58 337.25,-58 337.25,-38 497.25,-38 497.25,-58"/>
<text xml:space="preserve" text-anchor="middle" x="417.25" y="-44.5" font-family="Helvetica,sans-Serif" font-size="10.00">MapWidgetOSM::latLonToTileXY</text>
</a>
</g>
</g>
<!-- Node2&#45;&gt;Node3 -->
<g id="edge2_Node000002_Node000003" class="edge">
<title>Node2&#45;&gt;Node3</title>
<g id="a_edge2_Node000002_Node000003"><a xlink:title=" ">
<path fill="none" stroke="#63b8ff" d="M301.68,-35.94C309.48,-36.76 317.55,-37.61 325.62,-38.46"/>
<polygon fill="#63b8ff" stroke="#63b8ff" points="325.19,-41.93 335.5,-39.5 325.92,-34.97 325.19,-41.93"/>
</a>
</g>
</g>
<!-- Node4 -->
<g id="Node000004" class="node">
<title>Node4</title>
<g id="a_Node000004"><a xlink:href="class_map_widget_o_s_m.html#a72db733576e870e347b4765b8d0db95a" target="_top" xlink:title="Génère une clé unique pour une tuile.">
<polygon fill="white" stroke="#666666" points="479.25,-20 355.25,-20 355.25,0 479.25,0 479.25,-20"/>
<text xml:space="preserve" text-anchor="middle" x="417.25" y="-6.5" font-family="Helvetica,sans-Serif" font-size="10.00">MapWidgetOSM::tileKey</text>
</a>
</g>
</g>
<!-- Node2&#45;&gt;Node4 -->
<g id="edge3_Node000002_Node000004" class="edge">
<title>Node2&#45;&gt;Node4</title>
<g id="a_edge3_Node000002_Node000004"><a xlink:title=" ">
<path fill="none" stroke="#63b8ff" d="M301.68,-22.06C315.43,-20.61 329.99,-19.08 343.95,-17.61"/>
<polygon fill="#63b8ff" stroke="#63b8ff" points="343.91,-21.13 353.49,-16.61 343.18,-14.17 343.91,-21.13"/>
</a>
</g>
</g>
</g>
</svg>
