<?xml version="1.0" encoding="UTF-8" standalone="no"?>
<!DOCTYPE svg PUBLIC "-//W3C//DTD SVG 1.1//EN"
 "http://www.w3.org/Graphics/SVG/1.1/DTD/svg11.dtd">
<!-- Generated by graphviz version 14.0.4 (20251115.1723)
 -->
<!-- Title: GrapheRoutier::calculerDistance Pages: 1 -->
<svg width="308pt" height="66pt"
 viewBox="0.00 0.00 308.00 66.00" xmlns="http://www.w3.org/2000/svg" xmlns:xlink="http://www.w3.org/1999/xlink">
<g id="graph0" class="graph" transform="scale(1 1) rotate(0) translate(4 62)">
<title>GrapheRoutier::calculerDistance</title>
<!-- Node1 -->
<g id="Node000001" class="node">
<title>Node1</title>
<g id="a_Node000001"><a xlink:title="Calcul de la distance entre deux noeuds.">
<polygon fill="#999999" stroke="#666666" points="157.75,-39 0,-39 0,-19 157.75,-19 157.75,-39"/>
<text xml:space="preserve" text-anchor="middle" x="78.88" y="-25.5" font-family="Helvetica,sans-Serif" font-size="10.00">GrapheRoutier::calculerDistance</text>
</a>
</g>
</g>
<!-- Node2 -->
<g id="Node000002" class="node">
<title>Node2</title>
<g id="a_Node000002"><a xlink:href="class_noeud.html#a1cf0e5435ec0529515c9b509f3b71408" target="_top" xlink:title="Récupération de la composante latitude de la position de noeud.">
<polygon fill="white" stroke="#666666" points="296,-58 197.5,-58 197.5,-38 296,-38 296,-58"/>
<text xml:space="preserve" text-anchor="middle" x="246.75" y="-44.5" font-family="Helvetica,sans-Serif" font-size="10.00">Noeud::getLatitude</text>
</a>
</g>
</g>
<!-- Node1&#45;&gt;Node2 -->
<g id="edge1_Node000001_Node000002" class="edge">
<title>Node1&#45;&gt;Node2</title>
<g id="a_edge1_Node000001_Node000002"><a xlink:title=" ">
<path fill="none" stroke="#63b8ff" d="M157.96,-37.94C167.41,-39.03 176.95,-40.12 186.07,-41.16"/>
<polygon fill="#63b8ff" stroke="#63b8ff" points="185.54,-44.63 195.88,-42.29 186.34,-37.67 185.54,-44.63"/>
</a>
</g>
</g>
<!-- Node3 -->
<g id="Node000003" class="node">
<title>Node3</title>
<g id="a_Node000003"><a xlink:href="class_noeud.html#a21fa0ef47babf1ed075441e8f5b49368" target="_top" xlink:title="Récupération de la composante longitude de la position de noeud.">
<polygon fill="white" stroke="#666666" points="299.75,-20 193.75,-20 193.75,0 299.75,0 299.75,-20"/>
<text xml:space="preserve" text-anchor="middle" x="246.75" y="-6.5" font-family="Helvetica,sans-Serif" font-size="10.00">Noeud::getLongitude</text>
</a>
</g>
</g>
<!-- Node1&#45;&gt;Node3 -->
<g id="edge2_Node000001_Node000003" class="edge">
<title>Node1&#45;&gt;Node3</title>
<g id="a_edge2_Node000001_Node000003"><a xlink:title=" ">
<path fill="none" stroke="#63b8ff" d="M157.96,-20.06C166.09,-19.13 174.28,-18.19 182.22,-17.28"/>
<polygon fill="#63b8ff" stroke="#63b8ff" points="182.6,-20.76 192.13,-16.14 181.8,-13.8 182.6,-20.76"/>
</a>
</g>
</g>
</g>
</svg>
