<?xml version="1.0" encoding="UTF-8" standalone="no"?>
<!DOCTYPE svg PUBLIC "-//W3C//DTD SVG 1.1//EN"
 "http://www.w3.org/Graphics/SVG/1.1/DTD/svg11.dtd">
<!-- Generated by graphviz version 14.0.4 (20251115.1723)
 -->
<!-- Title: src/backend/liencommunication.h Pages: 1 -->
<svg width="751pt" height="320pt"
 viewBox="0.00 0.00 751.00 320.00" xmlns="http://www.w3.org/2000/svg" xmlns:xlink="http://www.w3.org/1999/xlink">
<g id="graph0" class="graph" transform="scale(1 1) rotate(0) translate(4 316)">
<title>src/backend/liencommunication.h</title>
<!-- Node1 -->
<g id="Node000001" class="node">
<title>Node1</title>
<g id="a_Node000001"><a xlink:title=" ">
<polygon fill="#999999" stroke="#666666" points="388.38,-312 226.88,-312 226.88,-292 388.38,-292 388.38,-312"/>
<text xml:space="preserve" text-anchor="middle" x="307.62" y="-298.5" font-family="Helvetica,sans-Serif" font-size="10.00">src/backend/liencommunication.h</text>
</a>
</g>
</g>
<!-- Node2 -->
<g id="Node000002" class="node">
<title>Node2</title>
<g id="a_Node000002"><a xlink:href="grapheinterference_8h.html" target="_top" xlink:title=" ">
<polygon fill="white" stroke="#666666" points="280,-256 119.25,-256 119.25,-236 280,-236 280,-256"/>
<text xml:space="preserve" text-anchor="middle" x="199.62" y="-242.5" font-family="Helvetica,sans-Serif" font-size="10.00">src/backend/grapheinterference.h</text>
</a>
</g>
</g>
<!-- Node1&#45;&gt;Node2 -->
<g id="edge1_Node000001_Node000002" class="edge">
<title>Node1&#45;&gt;Node2</title>
<g id="a_edge1_Node000001_Node000002"><a xlink:title=" ">
<path fill="none" stroke="#63b8ff" d="M278.59,-286.48C259.54,-276.96 235.18,-264.78 218.58,-256.48"/>
<polygon fill="#63b8ff" stroke="#63b8ff" points="276.95,-289.58 287.46,-290.92 280.08,-283.31 276.95,-289.58"/>
</a>
</g>
</g>
<!-- Node5 -->
<g id="Node000005" class="node">
<title>Node5</title>
<g id="a_Node000005"><a xlink:href="simulateur_8h.html" target="_top" xlink:title=" ">
<polygon fill="white" stroke="#666666" points="370.38,-200 244.88,-200 244.88,-180 370.38,-180 370.38,-200"/>
<text xml:space="preserve" text-anchor="middle" x="307.62" y="-186.5" font-family="Helvetica,sans-Serif" font-size="10.00">src/backend/simulateur.h</text>
</a>
</g>
</g>
<!-- Node1&#45;&gt;Node5 -->
<g id="edge16_Node000001_Node000005" class="edge">
<title>Node1&#45;&gt;Node5</title>
<g id="a_edge16_Node000001_Node000005"><a xlink:title=" ">
<path fill="none" stroke="#63b8ff" d="M307.62,-280.31C307.62,-256.36 307.62,-217.95 307.62,-200.35"/>
<polygon fill="#63b8ff" stroke="#63b8ff" points="304.13,-280.11 307.63,-290.11 311.13,-280.11 304.13,-280.11"/>
</a>
</g>
</g>
<!-- Node13 -->
<g id="Node000013" class="node">
<title>Node13</title>
<g id="a_Node000013"><a xlink:href="liencommunication_8cpp.html" target="_top" xlink:title=" ">
<polygon fill="white" stroke="#666666" points="507.62,-256 335.62,-256 335.62,-236 507.62,-236 507.62,-256"/>
<text xml:space="preserve" text-anchor="middle" x="421.62" y="-242.5" font-family="Helvetica,sans-Serif" font-size="10.00">src/backend/liencommunication.cpp</text>
</a>
</g>
</g>
<!-- Node1&#45;&gt;Node13 -->
<g id="edge15_Node000001_Node000013" class="edge">
<title>Node1&#45;&gt;Node13</title>
<g id="a_edge15_Node000001_Node000013"><a xlink:title=" ">
<path fill="none" stroke="#63b8ff" d="M337.72,-286.75C357.91,-277.18 383.94,-264.85 401.61,-256.48"/>
<polygon fill="#63b8ff" stroke="#63b8ff" points="336.39,-283.5 328.85,-290.95 339.39,-289.83 336.39,-283.5"/>
</a>
</g>
</g>
<!-- Node3 -->
<g id="Node000003" class="node">
<title>Node3</title>
<g id="a_Node000003"><a xlink:href="grapheinterference_8cpp.html" target="_top" xlink:title=" ">
<polygon fill="white" stroke="#666666" points="171.25,-200 0,-200 0,-180 171.25,-180 171.25,-200"/>
<text xml:space="preserve" text-anchor="middle" x="85.62" y="-186.5" font-family="Helvetica,sans-Serif" font-size="10.00">src/backend/grapheinterference.cpp</text>
</a>
</g>
</g>
<!-- Node2&#45;&gt;Node3 -->
<g id="edge2_Node000002_Node000003" class="edge">
<title>Node2&#45;&gt;Node3</title>
<g id="a_edge2_Node000002_Node000003"><a xlink:title=" ">
<path fill="none" stroke="#63b8ff" d="M169.53,-230.75C149.34,-221.18 123.31,-208.85 105.64,-200.48"/>
<polygon fill="#63b8ff" stroke="#63b8ff" points="167.86,-233.83 178.4,-234.95 170.86,-227.5 167.86,-233.83"/>
</a>
</g>
</g>
<!-- Node4 -->
<g id="Node000004" class="node">
<title>Node4</title>
<g id="a_Node000004"><a xlink:href="simulateur_8cpp.html" target="_top" xlink:title=" ">
<polygon fill="white" stroke="#666666" points="189.62,-138 53.62,-138 53.62,-118 189.62,-118 189.62,-138"/>
<text xml:space="preserve" text-anchor="middle" x="121.62" y="-124.5" font-family="Helvetica,sans-Serif" font-size="10.00">src/backend/simulateur.cpp</text>
</a>
</g>
</g>
<!-- Node2&#45;&gt;Node4 -->
<g id="edge3_Node000002_Node000004" class="edge">
<title>Node2&#45;&gt;Node4</title>
<g id="a_edge3_Node000002_Node000004"><a xlink:title=" ">
<path fill="none" stroke="#63b8ff" d="M196.82,-224.95C194.22,-211.42 189.38,-193.63 180.62,-180 169.35,-162.46 150.29,-147.57 136.89,-138.48"/>
<polygon fill="#63b8ff" stroke="#63b8ff" points="193.3,-225.13 198.38,-234.43 200.21,-223.99 193.3,-225.13"/>
</a>
</g>
</g>
<!-- Node2&#45;&gt;Node5 -->
<g id="edge4_Node000002_Node000005" class="edge">
<title>Node2&#45;&gt;Node5</title>
<g id="a_edge4_Node000002_Node000005"><a xlink:title=" ">
<path fill="none" stroke="#63b8ff" d="M228.66,-230.48C247.71,-220.96 272.07,-208.78 288.67,-200.48"/>
<polygon fill="#63b8ff" stroke="#63b8ff" points="227.17,-227.31 219.79,-234.92 230.3,-233.58 227.17,-227.31"/>
</a>
</g>
</g>
<!-- Node5&#45;&gt;Node4 -->
<g id="edge7_Node000005_Node000004" class="edge">
<title>Node5&#45;&gt;Node4</title>
<g id="a_edge7_Node000005_Node000004"><a xlink:title=" ">
<path fill="none" stroke="#63b8ff" d="M267.73,-176.13C232.61,-164.8 182.27,-148.56 150.79,-138.41"/>
<polygon fill="#63b8ff" stroke="#63b8ff" points="266.53,-179.42 277.12,-179.16 268.68,-172.76 266.53,-179.42"/>
</a>
</g>
</g>
<!-- Node6 -->
<g id="Node000006" class="node">
<title>Node6</title>
<g id="a_Node000006"><a xlink:href="main_8cpp.html" target="_top" xlink:title=" ">
<polygon fill="white" stroke="#666666" points="291.62,-20 179.62,-20 179.62,0 291.62,0 291.62,-20"/>
<text xml:space="preserve" text-anchor="middle" x="235.62" y="-6.5" font-family="Helvetica,sans-Serif" font-size="10.00">src/backend/main.cpp</text>
</a>
</g>
</g>
<!-- Node5&#45;&gt;Node6 -->
<g id="edge5_Node000005_Node000006" class="edge">
<title>Node5&#45;&gt;Node6</title>
<g id="a_edge5_Node000005_Node000006"><a xlink:title=" ">
<path fill="none" stroke="#63b8ff" d="M270.79,-174.68C257.59,-167.56 244.13,-157.52 236.62,-144 213.88,-103.02 226.58,-43.4 232.81,-20.47"/>
<polygon fill="#63b8ff" stroke="#63b8ff" points="268.85,-177.63 279.37,-178.9 271.94,-171.35 268.85,-177.63"/>
</a>
</g>
</g>
<!-- Node7 -->
<g id="Node000007" class="node">
<title>Node7</title>
<g id="a_Node000007"><a xlink:href="main__test__simulation__console_8cpp.html" target="_top" xlink:title=" ">
<polygon fill="white" stroke="#666666" points="369.25,-144 246,-144 246,-112 369.25,-112 369.25,-144"/>
<text xml:space="preserve" text-anchor="start" x="254" y="-130.5" font-family="Helvetica,sans-Serif" font-size="10.00">src/backend/main_test</text>
<text xml:space="preserve" text-anchor="middle" x="307.62" y="-118.5" font-family="Helvetica,sans-Serif" font-size="10.00">_simulation_console.cpp</text>
</a>
</g>
</g>
<!-- Node5&#45;&gt;Node7 -->
<g id="edge6_Node000005_Node000007" class="edge">
<title>Node5&#45;&gt;Node7</title>
<g id="a_edge6_Node000005_Node000007"><a xlink:title=" ">
<path fill="none" stroke="#63b8ff" d="M307.62,-168.31C307.62,-160.37 307.62,-151.46 307.62,-144.14"/>
<polygon fill="#63b8ff" stroke="#63b8ff" points="304.13,-168.11 307.63,-178.11 311.13,-168.11 304.13,-168.11"/>
</a>
</g>
</g>
<!-- Node8 -->
<g id="Node000008" class="node">
<title>Node8</title>
<g id="a_Node000008"><a xlink:href="mainwindow_8h.html" target="_top" xlink:title=" ">
<polygon fill="white" stroke="#666666" points="463.75,-76 331.5,-76 331.5,-56 463.75,-56 463.75,-76"/>
<text xml:space="preserve" text-anchor="middle" x="397.62" y="-62.5" font-family="Helvetica,sans-Serif" font-size="10.00">src/frontend/mainwindow.h</text>
</a>
</g>
</g>
<!-- Node5&#45;&gt;Node8 -->
<g id="edge8_Node000005_Node000008" class="edge">
<title>Node5&#45;&gt;Node8</title>
<g id="a_edge8_Node000005_Node000008"><a xlink:title=" ">
<path fill="none" stroke="#63b8ff" d="M341.42,-174.49C354.83,-167.16 369.25,-157.02 378.62,-144 393.59,-123.21 396.84,-91.99 397.5,-76.46"/>
<polygon fill="#63b8ff" stroke="#63b8ff" points="340.15,-171.21 332.82,-178.86 343.32,-177.45 340.15,-171.21"/>
</a>
</g>
</g>
<!-- Node10 -->
<g id="Node000010" class="node">
<title>Node10</title>
<g id="a_Node000010"><a xlink:href="mapwidgetosm_8cpp.html" target="_top" xlink:title=" ">
<polygon fill="white" stroke="#666666" points="581.38,-138 425.88,-138 425.88,-118 581.38,-118 581.38,-138"/>
<text xml:space="preserve" text-anchor="middle" x="503.62" y="-124.5" font-family="Helvetica,sans-Serif" font-size="10.00">src/frontend/mapwidgetosm.cpp</text>
</a>
</g>
</g>
<!-- Node5&#45;&gt;Node10 -->
<g id="edge11_Node000005_Node000010" class="edge">
<title>Node5&#45;&gt;Node10</title>
<g id="a_edge11_Node000005_Node000010"><a xlink:title=" ">
<path fill="none" stroke="#63b8ff" d="M349.18,-176.28C386.22,-164.94 439.58,-148.61 472.89,-138.41"/>
<polygon fill="#63b8ff" stroke="#63b8ff" points="348.23,-172.91 339.7,-179.18 350.28,-179.6 348.23,-172.91"/>
</a>
</g>
</g>
<!-- Node11 -->
<g id="Node000011" class="node">
<title>Node11</title>
<g id="a_Node000011"><a xlink:href="paramwindow_8h.html" target="_top" xlink:title=" ">
<polygon fill="white" stroke="#666666" points="737.75,-138 599.5,-138 599.5,-118 737.75,-118 737.75,-138"/>
<text xml:space="preserve" text-anchor="middle" x="668.62" y="-124.5" font-family="Helvetica,sans-Serif" font-size="10.00">src/frontend/paramwindow.h</text>
</a>
</g>
</g>
<!-- Node5&#45;&gt;Node11 -->
<g id="edge12_Node000005_Node000011" class="edge">
<title>Node5&#45;&gt;Node11</title>
<g id="a_edge12_Node000005_Node000011"><a xlink:title=" ">
<path fill="none" stroke="#63b8ff" d="M381.77,-177.88C438.92,-169.15 519.88,-156.42 590.62,-144 600.4,-142.28 610.85,-140.34 620.82,-138.45"/>
<polygon fill="#63b8ff" stroke="#63b8ff" points="381.52,-174.38 372.16,-179.34 382.58,-181.3 381.52,-174.38"/>
</a>
</g>
</g>
<!-- Node8&#45;&gt;Node6 -->
<g id="edge9_Node000008_Node000006" class="edge">
<title>Node8&#45;&gt;Node6</title>
<g id="a_edge9_Node000008_Node000006"><a xlink:title=" ">
<path fill="none" stroke="#63b8ff" d="M358.77,-52.05C329.61,-42.33 290.34,-29.24 264.06,-20.48"/>
<polygon fill="#63b8ff" stroke="#63b8ff" points="357.38,-55.27 367.97,-55.12 359.59,-48.63 357.38,-55.27"/>
</a>
</g>
</g>
<!-- Node9 -->
<g id="Node000009" class="node">
<title>Node9</title>
<g id="a_Node000009"><a xlink:href="mainwindow_8cpp.html" target="_top" xlink:title=" ">
<polygon fill="white" stroke="#666666" points="469,-20 326.25,-20 326.25,0 469,0 469,-20"/>
<text xml:space="preserve" text-anchor="middle" x="397.62" y="-6.5" font-family="Helvetica,sans-Serif" font-size="10.00">src/frontend/mainwindow.cpp</text>
</a>
</g>
</g>
<!-- Node8&#45;&gt;Node9 -->
<g id="edge10_Node000008_Node000009" class="edge">
<title>Node8&#45;&gt;Node9</title>
<g id="a_edge10_Node000008_Node000009"><a xlink:title=" ">
<path fill="none" stroke="#63b8ff" d="M397.62,-44.13C397.62,-35.9 397.62,-26.85 397.62,-20.3"/>
<polygon fill="#63b8ff" stroke="#63b8ff" points="394.13,-44.08 397.63,-54.08 401.13,-44.08 394.13,-44.08"/>
</a>
</g>
</g>
<!-- Node11&#45;&gt;Node8 -->
<g id="edge13_Node000011_Node000008" class="edge">
<title>Node11&#45;&gt;Node8</title>
<g id="a_edge13_Node000011_Node000008"><a xlink:title=" ">
<path fill="none" stroke="#63b8ff" d="M614.82,-115.09C563.65,-103.76 487.66,-86.93 440.47,-76.48"/>
<polygon fill="#63b8ff" stroke="#63b8ff" points="613.99,-118.49 624.51,-117.23 615.5,-111.65 613.99,-118.49"/>
</a>
</g>
</g>
<!-- Node12 -->
<g id="Node000012" class="node">
<title>Node12</title>
<g id="a_Node000012"><a xlink:href="paramwindow_8cpp.html" target="_top" xlink:title=" ">
<polygon fill="white" stroke="#666666" points="743,-76 594.25,-76 594.25,-56 743,-56 743,-76"/>
<text xml:space="preserve" text-anchor="middle" x="668.62" y="-62.5" font-family="Helvetica,sans-Serif" font-size="10.00">src/frontend/paramwindow.cpp</text>
</a>
</g>
</g>
<!-- Node11&#45;&gt;Node12 -->
<g id="edge14_Node000011_Node000012" class="edge">
<title>Node11&#45;&gt;Node12</title>
<g id="a_edge14_Node000011_Node000012"><a xlink:title=" ">
<path fill="none" stroke="#63b8ff" d="M668.62,-106.25C668.62,-95.97 668.62,-84.09 668.62,-76.11"/>
<polygon fill="#63b8ff" stroke="#63b8ff" points="665.13,-106.11 668.63,-116.11 672.13,-106.11 665.13,-106.11"/>
</a>
</g>
</g>
</g>
</svg>
