<?xml version="1.0" encoding="UTF-8" standalone="no"?>
<!DOCTYPE svg PUBLIC "-//W3C//DTD SVG 1.1//EN"
 "http://www.w3.org/Graphics/SVG/1.1/DTD/svg11.dtd">
<!-- Generated by graphviz version 14.0.4 (20251115.1723)
 -->
<!-- Title: src/frontend/mapwidgetosm.h Pages: 1 -->
<svg width="733pt" height="84pt"
 viewBox="0.00 0.00 733.00 84.00" xmlns="http://www.w3.org/2000/svg" xmlns:xlink="http://www.w3.org/1999/xlink">
<g id="graph0" class="graph" transform="scale(1 1) rotate(0) translate(4 80)">
<title>src/frontend/mapwidgetosm.h</title>
<!-- Node1 -->
<g id="Node000001" class="node">
<title>Node1</title>
<g id="a_Node000001"><a xlink:title=" ">
<polygon fill="#999999" stroke="#666666" points="451.62,-76 306.62,-76 306.62,-56 451.62,-56 451.62,-76"/>
<text xml:space="preserve" text-anchor="middle" x="379.12" y="-62.5" font-family="Helvetica,sans-Serif" font-size="10.00">src/frontend/mapwidgetosm.h</text>
</a>
</g>
</g>
<!-- Node2 -->
<g id="Node000002" class="node">
<title>Node2</title>
<g id="a_Node000002"><a xlink:title=" ">
<polygon fill="#e0e0e0" stroke="#999999" points="54.25,-20 0,-20 0,0 54.25,0 54.25,-20"/>
<text xml:space="preserve" text-anchor="middle" x="27.12" y="-6.5" font-family="Helvetica,sans-Serif" font-size="10.00">QWidget</text>
</a>
</g>
</g>
<!-- Node1&#45;&gt;Node2 -->
<g id="edge1_Node000001_Node000002" class="edge">
<title>Node1&#45;&gt;Node2</title>
<g id="a_edge1_Node000001_Node000002"><a xlink:title=" ">
<path fill="none" stroke="#63b8ff" d="M306.23,-56.62C244.73,-49.08 154.18,-36.9 65.61,-20.11"/>
<polygon fill="#63b8ff" stroke="#63b8ff" points="66.51,-16.72 56.03,-18.27 65.19,-23.59 66.51,-16.72"/>
</a>
</g>
</g>
<!-- Node3 -->
<g id="Node000003" class="node">
<title>Node3</title>
<g id="a_Node000003"><a xlink:title=" ">
<polygon fill="#e0e0e0" stroke="#999999" points="203.5,-20 72.75,-20 72.75,0 203.5,0 203.5,-20"/>
<text xml:space="preserve" text-anchor="middle" x="138.12" y="-6.5" font-family="Helvetica,sans-Serif" font-size="10.00">QNetworkAccessManager</text>
</a>
</g>
</g>
<!-- Node1&#45;&gt;Node3 -->
<g id="edge2_Node000001_Node000003" class="edge">
<title>Node1&#45;&gt;Node3</title>
<g id="a_edge2_Node000001_Node000003"><a xlink:title=" ">
<path fill="none" stroke="#63b8ff" d="M336.87,-55.53C296.39,-46.46 235.14,-32.74 191.35,-22.93"/>
<polygon fill="#63b8ff" stroke="#63b8ff" points="192.33,-19.56 181.81,-20.79 190.8,-26.39 192.33,-19.56"/>
</a>
</g>
</g>
<!-- Node4 -->
<g id="Node000004" class="node">
<title>Node4</title>
<g id="a_Node000004"><a xlink:title=" ">
<polygon fill="#e0e0e0" stroke="#999999" points="307,-20 221.25,-20 221.25,0 307,0 307,-20"/>
<text xml:space="preserve" text-anchor="middle" x="264.12" y="-6.5" font-family="Helvetica,sans-Serif" font-size="10.00">QNetworkReply</text>
</a>
</g>
</g>
<!-- Node1&#45;&gt;Node4 -->
<g id="edge3_Node000001_Node000004" class="edge">
<title>Node1&#45;&gt;Node4</title>
<g id="a_edge3_Node000001_Node000004"><a xlink:title=" ">
<path fill="none" stroke="#63b8ff" d="M359.09,-55.59C341.31,-47.24 315.06,-34.92 294.66,-25.34"/>
<polygon fill="#63b8ff" stroke="#63b8ff" points="296.22,-22.21 285.68,-21.12 293.25,-28.54 296.22,-22.21"/>
</a>
</g>
</g>
<!-- Node5 -->
<g id="Node000005" class="node">
<title>Node5</title>
<g id="a_Node000005"><a xlink:title=" ">
<polygon fill="#e0e0e0" stroke="#999999" points="367.25,-20 325,-20 325,0 367.25,0 367.25,-20"/>
<text xml:space="preserve" text-anchor="middle" x="346.12" y="-6.5" font-family="Helvetica,sans-Serif" font-size="10.00">QMap</text>
</a>
</g>
</g>
<!-- Node1&#45;&gt;Node5 -->
<g id="edge4_Node000001_Node000005" class="edge">
<title>Node1&#45;&gt;Node5</title>
<g id="a_edge4_Node000001_Node000005"><a xlink:title=" ">
<path fill="none" stroke="#63b8ff" d="M373.38,-55.59C369.07,-48.55 363.03,-38.67 357.74,-30"/>
<polygon fill="#63b8ff" stroke="#63b8ff" points="360.8,-28.3 352.6,-21.59 354.82,-31.95 360.8,-28.3"/>
</a>
</g>
</g>
<!-- Node6 -->
<g id="Node000006" class="node">
<title>Node6</title>
<g id="a_Node000006"><a xlink:title=" ">
<polygon fill="#e0e0e0" stroke="#999999" points="441.38,-20 384.88,-20 384.88,0 441.38,0 441.38,-20"/>
<text xml:space="preserve" text-anchor="middle" x="413.12" y="-6.5" font-family="Helvetica,sans-Serif" font-size="10.00">QPixmap</text>
</a>
</g>
</g>
<!-- Node1&#45;&gt;Node6 -->
<g id="edge5_Node000001_Node000006" class="edge">
<title>Node1&#45;&gt;Node6</title>
<g id="a_edge5_Node000001_Node000006"><a xlink:title=" ">
<path fill="none" stroke="#63b8ff" d="M385.05,-55.59C389.48,-48.55 395.7,-38.67 401.16,-30"/>
<polygon fill="#63b8ff" stroke="#63b8ff" points="404.1,-31.91 406.46,-21.58 398.17,-28.18 404.1,-31.91"/>
</a>
</g>
</g>
<!-- Node7 -->
<g id="Node000007" class="node">
<title>Node7</title>
<g id="a_Node000007"><a xlink:title=" ">
<polygon fill="#e0e0e0" stroke="#999999" points="536.5,-20 459.75,-20 459.75,0 536.5,0 536.5,-20"/>
<text xml:space="preserve" text-anchor="middle" x="498.12" y="-6.5" font-family="Helvetica,sans-Serif" font-size="10.00">QWheelEvent</text>
</a>
</g>
</g>
<!-- Node1&#45;&gt;Node7 -->
<g id="edge6_Node000001_Node000007" class="edge">
<title>Node1&#45;&gt;Node7</title>
<g id="a_edge6_Node000001_Node000007"><a xlink:title=" ">
<path fill="none" stroke="#63b8ff" d="M399.85,-55.59C418.34,-47.21 445.67,-34.8 466.82,-25.21"/>
<polygon fill="#63b8ff" stroke="#63b8ff" points="468.2,-28.42 475.86,-21.1 465.3,-22.05 468.2,-28.42"/>
</a>
</g>
</g>
<!-- Node8 -->
<g id="Node000008" class="node">
<title>Node8</title>
<g id="a_Node000008"><a xlink:title=" ">
<polygon fill="#e0e0e0" stroke="#999999" points="633.25,-20 555,-20 555,0 633.25,0 633.25,-20"/>
<text xml:space="preserve" text-anchor="middle" x="594.12" y="-6.5" font-family="Helvetica,sans-Serif" font-size="10.00">QMouseEvent</text>
</a>
</g>
</g>
<!-- Node1&#45;&gt;Node8 -->
<g id="edge7_Node000001_Node000008" class="edge">
<title>Node1&#45;&gt;Node8</title>
<g id="a_edge7_Node000001_Node000008"><a xlink:title=" ">
<path fill="none" stroke="#63b8ff" d="M416.58,-55.59C452.27,-46.63 506.22,-33.08 545.28,-23.27"/>
<polygon fill="#63b8ff" stroke="#63b8ff" points="546.07,-26.68 554.91,-20.85 544.36,-19.89 546.07,-26.68"/>
</a>
</g>
</g>
<!-- Node9 -->
<g id="Node000009" class="node">
<title>Node9</title>
<g id="a_Node000009"><a xlink:title=" ">
<polygon fill="#e0e0e0" stroke="#999999" points="725.38,-20 650.88,-20 650.88,0 725.38,0 725.38,-20"/>
<text xml:space="preserve" text-anchor="middle" x="688.12" y="-6.5" font-family="Helvetica,sans-Serif" font-size="10.00">QPushButton</text>
</a>
</g>
</g>
<!-- Node1&#45;&gt;Node9 -->
<g id="edge8_Node000001_Node000009" class="edge">
<title>Node1&#45;&gt;Node9</title>
<g id="a_edge8_Node000001_Node000009"><a xlink:title=" ">
<path fill="none" stroke="#63b8ff" d="M436.91,-55.52C487.75,-47.08 564.05,-34.21 639.38,-20.47"/>
<polygon fill="#63b8ff" stroke="#63b8ff" points="639.79,-23.96 648.99,-18.71 638.53,-17.07 639.79,-23.96"/>
</a>
</g>
</g>
</g>
</svg>
