<?xml version="1.0" encoding="UTF-8" standalone="no"?>
<!DOCTYPE svg PUBLIC "-//W3C//DTD SVG 1.1//EN"
 "http://www.w3.org/Graphics/SVG/1.1/DTD/svg11.dtd">
<!-- Generated by graphviz version 14.0.4 (20251115.1723)
 -->
<!-- Title: src/frontend/toolbar.cpp Pages: 1 -->
<svg width="381pt" height="140pt"
 viewBox="0.00 0.00 381.00 140.00" xmlns="http://www.w3.org/2000/svg" xmlns:xlink="http://www.w3.org/1999/xlink">
<g id="graph0" class="graph" transform="scale(1 1) rotate(0) translate(4 136)">
<title>src/frontend/toolbar.cpp</title>
<!-- Node1 -->
<g id="Node000001" class="node">
<title>Node1</title>
<g id="a_Node000001"><a xlink:title=" ">
<polygon fill="#999999" stroke="#666666" points="247.5,-132 128.75,-132 128.75,-112 247.5,-112 247.5,-132"/>
<text xml:space="preserve" text-anchor="middle" x="188.12" y="-118.5" font-family="Helvetica,sans-Serif" font-size="10.00">src/frontend/toolbar.cpp</text>
</a>
</g>
</g>
<!-- Node2 -->
<g id="Node000002" class="node">
<title>Node2</title>
<g id="a_Node000002"><a xlink:href="toolbar_8h.html" target="_top" xlink:title=" ">
<polygon fill="white" stroke="#666666" points="214.88,-76 161.38,-76 161.38,-56 214.88,-56 214.88,-76"/>
<text xml:space="preserve" text-anchor="middle" x="188.12" y="-62.5" font-family="Helvetica,sans-Serif" font-size="10.00">toolbar.h</text>
</a>
</g>
</g>
<!-- Node1&#45;&gt;Node2 -->
<g id="edge1_Node000001_Node000002" class="edge">
<title>Node1&#45;&gt;Node2</title>
<g id="a_edge1_Node000001_Node000002"><a xlink:title=" ">
<path fill="none" stroke="#63b8ff" d="M188.12,-111.59C188.12,-105.01 188.12,-95.96 188.12,-87.73"/>
<polygon fill="#63b8ff" stroke="#63b8ff" points="191.63,-87.81 188.13,-77.81 184.63,-87.81 191.63,-87.81"/>
</a>
</g>
</g>
<!-- Node3 -->
<g id="Node000003" class="node">
<title>Node3</title>
<g id="a_Node000003"><a xlink:title=" ">
<polygon fill="#e0e0e0" stroke="#999999" points="54.25,-20 0,-20 0,0 54.25,0 54.25,-20"/>
<text xml:space="preserve" text-anchor="middle" x="27.12" y="-6.5" font-family="Helvetica,sans-Serif" font-size="10.00">QWidget</text>
</a>
</g>
</g>
<!-- Node2&#45;&gt;Node3 -->
<g id="edge2_Node000002_Node000003" class="edge">
<title>Node2&#45;&gt;Node3</title>
<g id="a_edge2_Node000002_Node000003"><a xlink:title=" ">
<path fill="none" stroke="#63b8ff" d="M161.18,-55.96C134.98,-47.18 94.94,-33.75 65.44,-23.85"/>
<polygon fill="#63b8ff" stroke="#63b8ff" points="66.73,-20.59 56.14,-20.73 64.5,-27.23 66.73,-20.59"/>
</a>
</g>
</g>
<!-- Node4 -->
<g id="Node000004" class="node">
<title>Node4</title>
<g id="a_Node000004"><a xlink:title=" ">
<polygon fill="#e0e0e0" stroke="#999999" points="146.38,-20 71.88,-20 71.88,0 146.38,0 146.38,-20"/>
<text xml:space="preserve" text-anchor="middle" x="109.12" y="-6.5" font-family="Helvetica,sans-Serif" font-size="10.00">QPushButton</text>
</a>
</g>
</g>
<!-- Node2&#45;&gt;Node4 -->
<g id="edge3_Node000002_Node000004" class="edge">
<title>Node2&#45;&gt;Node4</title>
<g id="a_edge3_Node000002_Node000004"><a xlink:title=" ">
<path fill="none" stroke="#63b8ff" d="M174.36,-55.59C162.77,-47.67 145.93,-36.16 132.26,-26.82"/>
<polygon fill="#63b8ff" stroke="#63b8ff" points="134.47,-24.09 124.24,-21.33 130.52,-29.87 134.47,-24.09"/>
</a>
</g>
</g>
<!-- Node5 -->
<g id="Node000005" class="node">
<title>Node5</title>
<g id="a_Node000005"><a xlink:title=" ">
<polygon fill="#e0e0e0" stroke="#999999" points="212.25,-20 164,-20 164,0 212.25,0 212.25,-20"/>
<text xml:space="preserve" text-anchor="middle" x="188.12" y="-6.5" font-family="Helvetica,sans-Serif" font-size="10.00">QSlider</text>
</a>
</g>
</g>
<!-- Node2&#45;&gt;Node5 -->
<g id="edge4_Node000002_Node000005" class="edge">
<title>Node2&#45;&gt;Node5</title>
<g id="a_edge4_Node000002_Node000005"><a xlink:title=" ">
<path fill="none" stroke="#63b8ff" d="M188.12,-55.59C188.12,-49.01 188.12,-39.96 188.12,-31.73"/>
<polygon fill="#63b8ff" stroke="#63b8ff" points="191.63,-31.81 188.13,-21.81 184.63,-31.81 191.63,-31.81"/>
</a>
</g>
</g>
<!-- Node6 -->
<g id="Node000006" class="node">
<title>Node6</title>
<g id="a_Node000006"><a xlink:title=" ">
<polygon fill="#e0e0e0" stroke="#999999" points="277.5,-20 230.75,-20 230.75,0 277.5,0 277.5,-20"/>
<text xml:space="preserve" text-anchor="middle" x="254.12" y="-6.5" font-family="Helvetica,sans-Serif" font-size="10.00">QLabel</text>
</a>
</g>
</g>
<!-- Node2&#45;&gt;Node6 -->
<g id="edge5_Node000002_Node000006" class="edge">
<title>Node2&#45;&gt;Node6</title>
<g id="a_edge5_Node000002_Node000006"><a xlink:title=" ">
<path fill="none" stroke="#63b8ff" d="M199.62,-55.59C209.09,-47.85 222.73,-36.69 234,-27.47"/>
<polygon fill="#63b8ff" stroke="#63b8ff" points="236.07,-30.3 241.59,-21.26 231.63,-24.88 236.07,-30.3"/>
</a>
</g>
</g>
<!-- Node7 -->
<g id="Node000007" class="node">
<title>Node7</title>
<g id="a_Node000007"><a xlink:title=" ">
<polygon fill="#e0e0e0" stroke="#999999" points="372.88,-20 295.38,-20 295.38,0 372.88,0 372.88,-20"/>
<text xml:space="preserve" text-anchor="middle" x="334.12" y="-6.5" font-family="Helvetica,sans-Serif" font-size="10.00">QHBoxLayout</text>
</a>
</g>
</g>
<!-- Node2&#45;&gt;Node7 -->
<g id="edge6_Node000002_Node000007" class="edge">
<title>Node2&#45;&gt;Node7</title>
<g id="a_edge6_Node000002_Node000007"><a xlink:title=" ">
<path fill="none" stroke="#63b8ff" d="M213.56,-55.59C236.86,-46.97 271.62,-34.12 297.84,-24.42"/>
<polygon fill="#63b8ff" stroke="#63b8ff" points="298.91,-27.76 307.08,-21 296.48,-21.19 298.91,-27.76"/>
</a>
</g>
</g>
</g>
</svg>
