<?xml version="1.0" encoding="UTF-8" standalone="no"?>
<!DOCTYPE svg PUBLIC "-//W3C//DTD SVG 1.1//EN"
 "http://www.w3.org/Graphics/SVG/1.1/DTD/svg11.dtd">
<!-- Generated by graphviz version 14.0.4 (20251115.1723)
 -->
<!-- Title: src/backend/vehicule.cpp Pages: 1 -->
<svg width="563pt" height="196pt"
 viewBox="0.00 0.00 563.00 196.00" xmlns="http://www.w3.org/2000/svg" xmlns:xlink="http://www.w3.org/1999/xlink">
<g id="graph0" class="graph" transform="scale(1 1) rotate(0) translate(4 192)">
<title>src/backend/vehicule.cpp</title>
<!-- Node1 -->
<g id="Node000001" class="node">
<title>Node1</title>
<g id="a_Node000001"><a xlink:title=" ">
<polygon fill="#999999" stroke="#666666" points="309.62,-188 182.62,-188 182.62,-168 309.62,-168 309.62,-188"/>
<text xml:space="preserve" text-anchor="middle" x="246.12" y="-174.5" font-family="Helvetica,sans-Serif" font-size="10.00">src/backend/vehicule.cpp</text>
</a>
</g>
</g>
<!-- Node2 -->
<g id="Node000002" class="node">
<title>Node2</title>
<g id="a_Node000002"><a xlink:href="vehicule_8h.html" target="_top" xlink:title=" ">
<polygon fill="white" stroke="#666666" points="60.25,-132 0,-132 0,-112 60.25,-112 60.25,-132"/>
<text xml:space="preserve" text-anchor="middle" x="30.12" y="-118.5" font-family="Helvetica,sans-Serif" font-size="10.00">vehicule.h</text>
</a>
</g>
</g>
<!-- Node1&#45;&gt;Node2 -->
<g id="edge1_Node000001_Node000002" class="edge">
<title>Node1&#45;&gt;Node2</title>
<g id="a_edge1_Node000001_Node000002"><a xlink:title=" ">
<path fill="none" stroke="#63b8ff" d="M208.5,-167.59C170.33,-158.05 111.38,-143.31 71.81,-133.42"/>
<polygon fill="#63b8ff" stroke="#63b8ff" points="72.71,-130.04 62.16,-131.01 71.01,-136.83 72.71,-130.04"/>
</a>
</g>
</g>
<!-- Node3 -->
<g id="Node000003" class="node">
<title>Node3</title>
<g id="a_Node000003"><a xlink:title=" ">
<polygon fill="#e0e0e0" stroke="#999999" points="121.62,-132 78.62,-132 78.62,-112 121.62,-112 121.62,-132"/>
<text xml:space="preserve" text-anchor="middle" x="100.12" y="-118.5" font-family="Helvetica,sans-Serif" font-size="10.00">cmath</text>
</a>
</g>
</g>
<!-- Node1&#45;&gt;Node3 -->
<g id="edge2_Node000001_Node000003" class="edge">
<title>Node1&#45;&gt;Node3</title>
<g id="a_edge2_Node000001_Node000003"><a xlink:title=" ">
<path fill="none" stroke="#63b8ff" d="M220.69,-167.59C196.25,-158.55 159.19,-144.85 132.61,-135.02"/>
<polygon fill="#63b8ff" stroke="#63b8ff" points="133.95,-131.78 123.35,-131.59 131.52,-138.34 133.95,-131.78"/>
</a>
</g>
</g>
<!-- Node4 -->
<g id="Node000004" class="node">
<title>Node4</title>
<g id="a_Node000004"><a xlink:title=" ">
<polygon fill="#e0e0e0" stroke="#999999" points="184.38,-132 139.88,-132 139.88,-112 184.38,-112 184.38,-132"/>
<text xml:space="preserve" text-anchor="middle" x="162.12" y="-118.5" font-family="Helvetica,sans-Serif" font-size="10.00">cstdlib</text>
</a>
</g>
</g>
<!-- Node1&#45;&gt;Node4 -->
<g id="edge3_Node000001_Node000004" class="edge">
<title>Node1&#45;&gt;Node4</title>
<g id="a_edge3_Node000001_Node000004"><a xlink:title=" ">
<path fill="none" stroke="#63b8ff" d="M231.49,-167.59C219.04,-159.59 200.91,-147.93 186.3,-138.54"/>
<polygon fill="#63b8ff" stroke="#63b8ff" points="188.45,-135.76 178.14,-133.3 184.66,-141.65 188.45,-135.76"/>
</a>
</g>
</g>
<!-- Node5 -->
<g id="Node000005" class="node">
<title>Node5</title>
<g id="a_Node000005"><a xlink:title=" ">
<polygon fill="#e0e0e0" stroke="#999999" points="242.12,-132 202.12,-132 202.12,-112 242.12,-112 242.12,-132"/>
<text xml:space="preserve" text-anchor="middle" x="222.12" y="-118.5" font-family="Helvetica,sans-Serif" font-size="10.00">ctime</text>
</a>
</g>
</g>
<!-- Node1&#45;&gt;Node5 -->
<g id="edge4_Node000001_Node000005" class="edge">
<title>Node1&#45;&gt;Node5</title>
<g id="a_edge4_Node000001_Node000005"><a xlink:title=" ">
<path fill="none" stroke="#63b8ff" d="M241.94,-167.59C238.88,-160.7 234.61,-151.1 230.82,-142.57"/>
<polygon fill="#63b8ff" stroke="#63b8ff" points="234.13,-141.4 226.87,-133.68 227.74,-144.24 234.13,-141.4"/>
</a>
</g>
</g>
<!-- Node6 -->
<g id="Node000006" class="node">
<title>Node6</title>
<g id="a_Node000006"><a xlink:title=" ">
<polygon fill="#e0e0e0" stroke="#999999" points="350.88,-20 297.38,-20 297.38,0 350.88,0 350.88,-20"/>
<text xml:space="preserve" text-anchor="middle" x="324.12" y="-6.5" font-family="Helvetica,sans-Serif" font-size="10.00">iostream</text>
</a>
</g>
</g>
<!-- Node1&#45;&gt;Node6 -->
<g id="edge5_Node000001_Node000006" class="edge">
<title>Node1&#45;&gt;Node6</title>
<g id="a_edge5_Node000001_Node000006"><a xlink:title=" ">
<path fill="none" stroke="#63b8ff" d="M248.32,-167.78C253.51,-146.96 267.7,-95.1 289.12,-56 294.33,-46.5 301.49,-36.89 307.97,-29.01"/>
<polygon fill="#63b8ff" stroke="#63b8ff" points="310.54,-31.39 314.39,-21.52 305.22,-26.84 310.54,-31.39"/>
</a>
</g>
</g>
<!-- Node7 -->
<g id="Node000007" class="node">
<title>Node7</title>
<g id="a_Node000007"><a xlink:href="_graphe_routier_8h.html" target="_top" xlink:title=" ">
<polygon fill="white" stroke="#666666" points="432.75,-132 345.5,-132 345.5,-112 432.75,-112 432.75,-132"/>
<text xml:space="preserve" text-anchor="middle" x="389.12" y="-118.5" font-family="Helvetica,sans-Serif" font-size="10.00">GrapheRoutier.h</text>
</a>
</g>
</g>
<!-- Node1&#45;&gt;Node7 -->
<g id="edge6_Node000001_Node000007" class="edge">
<title>Node1&#45;&gt;Node7</title>
<g id="a_edge6_Node000001_Node000007"><a xlink:title=" ">
<path fill="none" stroke="#63b8ff" d="M271.03,-167.59C293.86,-158.97 327.91,-146.12 353.59,-136.42"/>
<polygon fill="#63b8ff" stroke="#63b8ff" points="354.49,-139.82 362.61,-133.01 352.01,-133.27 354.49,-139.82"/>
</a>
</g>
</g>
<!-- Node10 -->
<g id="Node000010" class="node">
<title>Node10</title>
<g id="a_Node000010"><a xlink:href="_noeud_8h.html" target="_top" xlink:title=" ">
<polygon fill="white" stroke="#666666" points="350.5,-76 297.75,-76 297.75,-56 350.5,-56 350.5,-76"/>
<text xml:space="preserve" text-anchor="middle" x="324.12" y="-62.5" font-family="Helvetica,sans-Serif" font-size="10.00">Noeud.h</text>
</a>
</g>
</g>
<!-- Node1&#45;&gt;Node10 -->
<g id="edge14_Node000001_Node000010" class="edge">
<title>Node1&#45;&gt;Node10</title>
<g id="a_edge14_Node000001_Node000010"><a xlink:title=" ">
<path fill="none" stroke="#63b8ff" d="M254.71,-167.68C262.71,-158.81 274.77,-144.92 284.12,-132 294.93,-117.07 305.8,-99.18 313.47,-85.95"/>
<polygon fill="#63b8ff" stroke="#63b8ff" points="316.43,-87.84 318.35,-77.42 310.35,-84.37 316.43,-87.84"/>
</a>
</g>
</g>
<!-- Node12 -->
<g id="Node000012" class="node">
<title>Node12</title>
<g id="a_Node000012"><a xlink:title=" ">
<polygon fill="#e0e0e0" stroke="#999999" points="507,-132 451.25,-132 451.25,-112 507,-112 507,-132"/>
<text xml:space="preserve" text-anchor="middle" x="479.12" y="-118.5" font-family="Helvetica,sans-Serif" font-size="10.00">algorithm</text>
</a>
</g>
</g>
<!-- Node1&#45;&gt;Node12 -->
<g id="edge15_Node000001_Node000012" class="edge">
<title>Node1&#45;&gt;Node12</title>
<g id="a_edge15_Node000001_Node000012"><a xlink:title=" ">
<path fill="none" stroke="#63b8ff" d="M288.22,-167.5C325.53,-159.04 381.79,-146.2 439.65,-132.56"/>
<polygon fill="#63b8ff" stroke="#63b8ff" points="440.45,-135.97 449.38,-130.26 438.84,-129.16 440.45,-135.97"/>
</a>
</g>
</g>
<!-- Node8 -->
<g id="Node000008" class="node">
<title>Node8</title>
<g id="a_Node000008"><a xlink:title=" ">
<polygon fill="#e0e0e0" stroke="#999999" points="438.62,-20 395.62,-20 395.62,0 438.62,0 438.62,-20"/>
<text xml:space="preserve" text-anchor="middle" x="417.12" y="-6.5" font-family="Helvetica,sans-Serif" font-size="10.00">vector</text>
</a>
</g>
</g>
<!-- Node7&#45;&gt;Node8 -->
<g id="edge7_Node000007_Node000008" class="edge">
<title>Node7&#45;&gt;Node8</title>
<g id="a_edge7_Node000007_Node000008"><a xlink:title=" ">
<path fill="none" stroke="#63b8ff" d="M399.98,-111.53C408.65,-103.18 420.16,-90.16 425.12,-76 430.25,-61.38 427.65,-43.9 424.1,-30.76"/>
<polygon fill="#63b8ff" stroke="#63b8ff" points="427.55,-30.05 421.22,-21.55 420.87,-32.14 427.55,-30.05"/>
</a>
</g>
</g>
<!-- Node9 -->
<g id="Node000009" class="node">
<title>Node9</title>
<g id="a_Node000009"><a xlink:title=" ">
<polygon fill="#e0e0e0" stroke="#999999" points="554.5,-76 471.75,-76 471.75,-56 554.5,-56 554.5,-76"/>
<text xml:space="preserve" text-anchor="middle" x="513.12" y="-62.5" font-family="Helvetica,sans-Serif" font-size="10.00">unordered_map</text>
</a>
</g>
</g>
<!-- Node7&#45;&gt;Node9 -->
<g id="edge8_Node000007_Node000009" class="edge">
<title>Node7&#45;&gt;Node9</title>
<g id="a_edge8_Node000007_Node000009"><a xlink:title=" ">
<path fill="none" stroke="#63b8ff" d="M410.72,-111.59C430.08,-103.17 458.73,-90.69 480.81,-81.07"/>
<polygon fill="#63b8ff" stroke="#63b8ff" points="482.2,-84.29 489.97,-77.08 479.4,-77.87 482.2,-84.29"/>
</a>
</g>
</g>
<!-- Node7&#45;&gt;Node10 -->
<g id="edge9_Node000007_Node000010" class="edge">
<title>Node7&#45;&gt;Node10</title>
<g id="a_edge9_Node000007_Node000010"><a xlink:title=" ">
<path fill="none" stroke="#63b8ff" d="M377.8,-111.59C368.48,-103.85 355.05,-92.69 343.95,-83.47"/>
<polygon fill="#63b8ff" stroke="#63b8ff" points="346.41,-80.96 336.48,-77.27 341.94,-86.35 346.41,-80.96"/>
</a>
</g>
</g>
<!-- Node11 -->
<g id="Node000011" class="node">
<title>Node11</title>
<g id="a_Node000011"><a xlink:href="_arete_8h.html" target="_top" xlink:title=" ">
<polygon fill="white" stroke="#666666" points="415.88,-76 368.38,-76 368.38,-56 415.88,-56 415.88,-76"/>
<text xml:space="preserve" text-anchor="middle" x="392.12" y="-62.5" font-family="Helvetica,sans-Serif" font-size="10.00">Arete.h</text>
</a>
</g>
</g>
<!-- Node7&#45;&gt;Node11 -->
<g id="edge12_Node000007_Node000011" class="edge">
<title>Node7&#45;&gt;Node11</title>
<g id="a_edge12_Node000007_Node000011"><a xlink:title=" ">
<path fill="none" stroke="#63b8ff" d="M389.65,-111.59C390.01,-105.01 390.52,-95.96 390.97,-87.73"/>
<polygon fill="#63b8ff" stroke="#63b8ff" points="394.46,-87.99 391.52,-77.81 387.48,-87.6 394.46,-87.99"/>
</a>
</g>
</g>
<!-- Node10&#45;&gt;Node6 -->
<g id="edge10_Node000010_Node000006" class="edge">
<title>Node10&#45;&gt;Node6</title>
<g id="a_edge10_Node000010_Node000006"><a xlink:title=" ">
<path fill="none" stroke="#63b8ff" d="M324.12,-55.59C324.12,-49.01 324.12,-39.96 324.12,-31.73"/>
<polygon fill="#63b8ff" stroke="#63b8ff" points="327.63,-31.81 324.13,-21.81 320.63,-31.81 327.63,-31.81"/>
</a>
</g>
</g>
<!-- Node10&#45;&gt;Node8 -->
<g id="edge11_Node000010_Node000008" class="edge">
<title>Node10&#45;&gt;Node8</title>
<g id="a_edge11_Node000010_Node000008"><a xlink:title=" ">
<path fill="none" stroke="#63b8ff" d="M340.32,-55.59C354.37,-47.44 374.96,-35.48 391.28,-26"/>
<polygon fill="#63b8ff" stroke="#63b8ff" points="392.6,-29.29 399.49,-21.24 389.08,-23.23 392.6,-29.29"/>
</a>
</g>
</g>
<!-- Node11&#45;&gt;Node6 -->
<g id="edge13_Node000011_Node000006" class="edge">
<title>Node11&#45;&gt;Node6</title>
<g id="a_edge13_Node000011_Node000006"><a xlink:title=" ">
<path fill="none" stroke="#63b8ff" d="M380.28,-55.59C370.43,-47.77 356.19,-36.46 344.52,-27.19"/>
<polygon fill="#63b8ff" stroke="#63b8ff" points="347.03,-24.72 337.02,-21.24 342.67,-30.2 347.03,-24.72"/>
</a>
</g>
</g>
</g>
</svg>
